<svg width="24" height="24" viewBox="0 0 24 24" fill="none" xmlns="http://www.w3.org/2000/svg">
<path fill-rule="evenodd" clip-rule="evenodd" d="M13.6621 17.6314C13.4586 17.818 13.4448 18.1343 13.6314 18.3379C13.818 18.5414 14.1343 18.5552 14.3379 18.3686L20.3379 12.8686C20.4412 12.7739 20.5 12.6402 20.5 12.5C20.5 12.3598 20.4412 12.2261 20.3379 12.1314L14.3379 6.63142C14.1343 6.44482 13.818 6.45857 13.6314 6.66213C13.4448 6.86569 13.4586 7.18198 13.6621 7.36857L18.7146 12L3.5 12C3.22386 12 3 12.2239 3 12.5C3 12.7761 3.22386 13 3.5 13L18.7146 13L13.6621 17.6314Z" fill="#0F0F0F" fill-opacity="0.5"/>
</svg>
