 <svg width="23" height="20" viewBox="0 0 23 20" fill="none" xmlns="http://www.w3.org/2000/svg">
    <path fill-rule="evenodd" clip-rule="evenodd" d="M9.5 0C8.70435 0 7.94129 0.31607 7.37868 0.87868C6.81607 1.44129 6.5 2.20435 6.5 3V4H3.5C1.84315 4 0.5 5.34315 0.5 7V17C0.5 18.6569 1.84315 20 3.5 20H7.5H15.5H19.5C21.1569 20 22.5 18.6569 22.5 17V7C22.5 5.34315 21.1569 4 19.5 4H16.5V3C16.5 2.20435 16.1839 1.44129 15.6213 0.87868C15.0587 0.31607 14.2956 0 13.5 0H9.5ZM14.5 4V3C14.5 2.73478 14.3946 2.48043 14.2071 2.29289C14.0196 2.10536 13.7652 2 13.5 2H9.5C9.23478 2 8.98043 2.10536 8.79289 2.29289C8.60536 2.48043 8.5 2.73478 8.5 3V4H14.5ZM8.5 6H14.5V18H8.5V6ZM6.5 6H3.5C2.94772 6 2.5 6.44772 2.5 7V17C2.5 17.5523 2.94772 18 3.5 18H6.5V6ZM16.5 18V6H19.5C20.0523 6 20.5 6.44772 20.5 7V17C20.5 17.5523 20.0523 18 19.5 18H16.5Z" fill="#0F0F0F" fill-opacity="0.5"/>
    </svg>
