<svg width="18" height="16" viewBox="0 0 18 16" fill="none" xmlns="http://www.w3.org/2000/svg">
<path d="M14.8334 3.41634H12.3334V2.58301C12.3334 1.91997 12.07 1.28408 11.6012 0.815241C11.1323 0.3464 10.4965 0.0830078 9.83342 0.0830078H8.16675C7.50371 0.0830078 6.86782 0.3464 6.39898 0.815241C5.93014 1.28408 5.66675 1.91997 5.66675 2.58301V3.41634H3.16675C2.50371 3.41634 1.86782 3.67973 1.39898 4.14857C0.93014 4.61741 0.666748 5.2533 0.666748 5.91634V13.4163C0.666748 14.0794 0.93014 14.7153 1.39898 15.1841C1.86782 15.6529 2.50371 15.9163 3.16675 15.9163H14.8334C15.4965 15.9163 16.1323 15.6529 16.6012 15.1841C17.07 14.7153 17.3334 14.0794 17.3334 13.4163V5.91634C17.3334 5.2533 17.07 4.61741 16.6012 4.14857C16.1323 3.67973 15.4965 3.41634 14.8334 3.41634ZM7.33342 2.58301C7.33342 2.36199 7.42121 2.15003 7.57749 1.99375C7.73377 1.83747 7.94573 1.74967 8.16675 1.74967H9.83342C10.0544 1.74967 10.2664 1.83747 10.4227 1.99375C10.579 2.15003 10.6667 2.36199 10.6667 2.58301V3.41634H7.33342V2.58301ZM15.6667 13.4163C15.6667 13.6374 15.579 13.8493 15.4227 14.0056C15.2664 14.1619 15.0544 14.2497 14.8334 14.2497H3.16675C2.94573 14.2497 2.73377 14.1619 2.57749 14.0056C2.42121 13.8493 2.33341 13.6374 2.33341 13.4163V8.83301C3.14628 9.15543 3.9819 9.41726 4.83342 9.61634V10.108C4.83342 10.329 4.92121 10.541 5.07749 10.6973C5.23377 10.8535 5.44573 10.9413 5.66675 10.9413C5.88776 10.9413 6.09972 10.8535 6.256 10.6973C6.41228 10.541 6.50008 10.329 6.50008 10.108V9.93301C7.3287 10.0458 8.16382 10.1043 9.00008 10.108C9.83634 10.1043 10.6715 10.0458 11.5001 9.93301V10.108C11.5001 10.329 11.5879 10.541 11.7442 10.6973C11.9004 10.8535 12.1124 10.9413 12.3334 10.9413C12.5544 10.9413 12.7664 10.8535 12.9227 10.6973C13.079 10.541 13.1667 10.329 13.1667 10.108V9.61634C14.0183 9.41726 14.8539 9.15543 15.6667 8.83301V13.4163ZM15.6667 7.00801C14.8562 7.35009 14.0204 7.6287 13.1667 7.84134V7.58301C13.1667 7.36199 13.079 7.15003 12.9227 6.99375C12.7664 6.83747 12.5544 6.74967 12.3334 6.74967C12.1124 6.74967 11.9004 6.83747 11.7442 6.99375C11.5879 7.15003 11.5001 7.36199 11.5001 7.58301V8.19967C9.84279 8.44971 8.15737 8.44971 6.50008 8.19967V7.58301C6.50008 7.36199 6.41228 7.15003 6.256 6.99375C6.09972 6.83747 5.88776 6.74967 5.66675 6.74967C5.44573 6.74967 5.23377 6.83747 5.07749 6.99375C4.92121 7.15003 4.83342 7.36199 4.83342 7.58301V7.85801C3.97977 7.64537 3.14392 7.36675 2.33341 7.02467V5.91634C2.33341 5.69533 2.42121 5.48337 2.57749 5.32709C2.73377 5.17081 2.94573 5.08301 3.16675 5.08301H14.8334C15.0544 5.08301 15.2664 5.17081 15.4227 5.32709C15.579 5.48337 15.6667 5.69533 15.6667 5.91634V7.00801Z" fill="currentColor"/>
</svg>
