<svg width="18" height="18" viewBox="0 0 18 18" fill="none" xmlns="http://www.w3.org/2000/svg">
<path d="M5.66676 9.83333C5.44575 9.83333 5.23379 9.92113 5.07751 10.0774C4.92123 10.2337 4.83343 10.4456 4.83343 10.6667V14.8333C4.83343 15.0543 4.92123 15.2663 5.07751 15.4226C5.23379 15.5789 5.44575 15.6667 5.66676 15.6667C5.88778 15.6667 6.09974 15.5789 6.25602 15.4226C6.4123 15.2663 6.5001 15.0543 6.5001 14.8333V10.6667C6.5001 10.4456 6.4123 10.2337 6.25602 10.0774C6.09974 9.92113 5.88778 9.83333 5.66676 9.83333V9.83333ZM9.0001 8.16666C8.77908 8.16666 8.56712 8.25446 8.41084 8.41074C8.25456 8.56702 8.16677 8.77898 8.16677 8.99999V16.5C8.16677 16.721 8.25456 16.933 8.41084 17.0893C8.56712 17.2455 8.77908 17.3333 9.0001 17.3333C9.22111 17.3333 9.43307 17.2455 9.58935 17.0893C9.74563 16.933 9.83343 16.721 9.83343 16.5V8.99999C9.83343 8.77898 9.74563 8.56702 9.58935 8.41074C9.43307 8.25446 9.22111 8.16666 9.0001 8.16666ZM14.3501 4.18333C13.8409 3.01333 12.9622 2.04256 11.8485 1.41977C10.7348 0.796974 9.44765 0.556521 8.18424 0.735252C6.92083 0.913983 5.75087 1.50204 4.85364 2.40931C3.95642 3.31657 3.38142 4.49301 3.21676 5.75833C2.48961 5.93413 1.84273 6.34943 1.38021 6.93742C0.917677 7.52541 0.666387 8.25189 0.666765 8.99999C0.665277 9.47201 0.764054 9.93896 0.956558 10.3699C1.14906 10.8009 1.4309 11.1861 1.78343 11.5C1.86456 11.5779 1.96063 11.6386 2.06585 11.6784C2.17106 11.7182 2.28325 11.7363 2.39564 11.7316C2.50804 11.7269 2.61831 11.6995 2.71982 11.651C2.82133 11.6025 2.91198 11.534 2.98629 11.4495C3.06061 11.3651 3.11706 11.2664 3.15224 11.1596C3.18742 11.0527 3.2006 10.9399 3.19099 10.8278C3.18137 10.7157 3.14917 10.6067 3.09631 10.5074C3.04346 10.4081 2.97104 10.3206 2.88343 10.25C2.70868 10.0923 2.56932 9.89936 2.47452 9.68391C2.37973 9.46846 2.33164 9.23537 2.33343 8.99999C2.33343 8.55797 2.50903 8.13404 2.82159 7.82148C3.13415 7.50892 3.55807 7.33333 4.0001 7.33333C4.22111 7.33333 4.43307 7.24553 4.58935 7.08925C4.74563 6.93297 4.83343 6.72101 4.83343 6.49999C4.83556 5.51439 5.187 4.56145 5.82532 3.81048C6.46364 3.05951 7.34751 2.55912 8.31989 2.39822C9.29227 2.23732 10.2902 2.42633 11.1364 2.93167C11.9826 3.437 12.6223 4.22594 12.9418 5.15833C12.9894 5.30153 13.075 5.4291 13.1895 5.52744C13.304 5.62577 13.443 5.69117 13.5918 5.71666C14.1702 5.81644 14.6951 6.1166 15.0745 6.56455C15.4539 7.01249 15.6636 7.57966 15.6668 8.16666C15.6795 8.78023 15.4591 9.37582 15.0501 9.83333C14.9171 9.999 14.8523 10.2092 14.8691 10.421C14.8859 10.6329 14.983 10.8303 15.1405 10.9729C15.2981 11.1155 15.5041 11.1925 15.7165 11.1883C15.929 11.184 16.1318 11.0988 16.2834 10.95C16.7424 10.4255 17.0625 9.79416 17.2144 9.11389C17.3662 8.43362 17.345 7.72613 17.1527 7.05619C16.9603 6.38625 16.6029 5.77527 16.1133 5.27919C15.6237 4.78311 15.0175 4.41778 14.3501 4.21666V4.18333ZM12.3334 9.83333C12.1124 9.83333 11.9005 9.92113 11.7442 10.0774C11.5879 10.2337 11.5001 10.4456 11.5001 10.6667V14.8333C11.5001 15.0543 11.5879 15.2663 11.7442 15.4226C11.9005 15.5789 12.1124 15.6667 12.3334 15.6667C12.5544 15.6667 12.7664 15.5789 12.9227 15.4226C13.079 15.2663 13.1668 15.0543 13.1668 14.8333V10.6667C13.1668 10.4456 13.079 10.2337 12.9227 10.0774C12.7664 9.92113 12.5544 9.83333 12.3334 9.83333Z" fill="currentColor"/>
</svg>
