<svg width="15" height="14" viewBox="0 0 15 14" fill="none" xmlns="http://www.w3.org/2000/svg">
<path fill-rule="evenodd" clip-rule="evenodd" d="M9.99972 2.33382C9.99987 2.81648 9.83969 3.28732 9.54124 3.68149C9.24279 4.07566 8.82075 4.37377 8.33324 4.53476V6.22242H10.833C11.4959 6.22242 12.1317 6.46823 12.6005 6.90578C13.0693 7.34334 13.3327 7.93679 13.3327 8.55558V9.46551C13.8889 9.64898 14.3576 10.0101 14.6562 10.485C14.9547 10.9598 15.0637 11.5179 14.964 12.0606C14.8643 12.6033 14.5622 13.0956 14.1112 13.4505C13.6602 13.8053 13.0893 14 12.4994 14C11.9095 14 11.3386 13.8053 10.8876 13.4505C10.4366 13.0956 10.1346 12.6033 10.0349 12.0606C9.93516 11.5179 10.0442 10.9598 10.3427 10.485C10.6412 10.0101 11.11 9.64898 11.6662 9.46551V8.55558C11.6662 8.34931 11.5784 8.1515 11.4222 8.00565C11.2659 7.8598 11.054 7.77786 10.833 7.77786H4.16704C3.94605 7.77786 3.73411 7.8598 3.57785 8.00565C3.42159 8.1515 3.3338 8.34931 3.3338 8.55558V9.46551C3.88998 9.64898 4.35876 10.0101 4.65728 10.485C4.95581 10.9598 5.06484 11.5179 4.96513 12.0606C4.86541 12.6033 4.56335 13.0956 4.11236 13.4505C3.66136 13.8053 3.09045 14 2.50056 14C1.91066 14 1.33976 13.8053 0.888762 13.4505C0.437764 13.0956 0.13571 12.6033 0.0359918 12.0606C-0.0637264 11.5179 0.045312 10.9598 0.343834 10.485C0.642355 10.0101 1.11114 9.64898 1.66732 9.46551V8.55558C1.66732 7.93679 1.93068 7.34334 2.39947 6.90578C2.86826 6.46823 3.50407 6.22242 4.16704 6.22242H6.66676V4.53476C6.23443 4.39231 5.85239 4.14166 5.56239 3.81021C5.27239 3.47877 5.0856 3.07928 5.02245 2.65544C4.9593 2.23159 5.0222 1.79969 5.2043 1.40696C5.38639 1.01424 5.68066 0.675795 6.05494 0.42864C6.42921 0.181484 6.86908 0.035129 7.32647 0.00557397C7.78385 -0.023981 8.24113 0.064402 8.64832 0.261061C9.05552 0.457719 9.39695 0.755083 9.63529 1.12064C9.87362 1.4862 9.9997 1.90589 9.99972 2.33382ZM7.5 1.5561C7.27901 1.5561 7.06707 1.63803 6.91081 1.78388C6.75455 1.92974 6.66676 2.12755 6.66676 2.33382C6.66676 2.54008 6.75455 2.7379 6.91081 2.88375C7.06707 3.0296 7.27901 3.11154 7.5 3.11154C7.72099 3.11154 7.93293 3.0296 8.08919 2.88375C8.24545 2.7379 8.33324 2.54008 8.33324 2.33382C8.33324 2.12755 8.24545 1.92974 8.08919 1.78388C7.93293 1.63803 7.72099 1.5561 7.5 1.5561ZM2.50056 10.8887C2.27957 10.8887 2.06763 10.9707 1.91137 11.1165C1.75511 11.2624 1.66732 11.4602 1.66732 11.6665C1.66732 11.8727 1.75511 12.0705 1.91137 12.2164C2.06763 12.3622 2.27957 12.4442 2.50056 12.4442C2.72155 12.4442 2.93349 12.3622 3.08975 12.2164C3.24601 12.0705 3.3338 11.8727 3.3338 11.6665C3.3338 11.4602 3.24601 11.2624 3.08975 11.1165C2.93349 10.9707 2.72155 10.8887 2.50056 10.8887ZM12.4994 10.8887C12.2785 10.8887 12.0665 10.9707 11.9103 11.1165C11.754 11.2624 11.6662 11.4602 11.6662 11.6665C11.6662 11.8727 11.754 12.0705 11.9103 12.2164C12.0665 12.3622 12.2785 12.4442 12.4994 12.4442C12.7204 12.4442 12.9324 12.3622 13.0886 12.2164C13.2449 12.0705 13.3327 11.8727 13.3327 11.6665C13.3327 11.4602 13.2449 11.2624 13.0886 11.1165C12.9324 10.9707 12.7204 10.8887 12.4994 10.8887Z" fill="#838383"/>
</svg>
