<svg width="12" height="46" viewBox="0 0 12 46" fill="none" xmlns="http://www.w3.org/2000/svg">
<path d="M6.00008 45.3333C4.94525 45.3333 3.91411 45.0205 3.03704 44.4345C2.15998 43.8485 1.47639 43.0155 1.07273 42.041C0.669059 41.0664 0.563441 39.9941 0.769229 38.9595C0.975017 37.9249 1.48297 36.9746 2.22885 36.2288C2.97473 35.4829 3.92504 34.9749 4.9596 34.7691C5.99417 34.5633 7.06652 34.669 8.04106 35.0726C9.0156 35.4763 9.84855 36.1599 10.4346 37.0369C11.0206 37.914 11.3334 38.9452 11.3334 40C11.3334 41.4145 10.7715 42.771 9.77132 43.7712C8.77112 44.7714 7.41457 45.3333 6.00008 45.3333ZM6.00008 29.3333C5.29284 29.3333 4.61456 29.0524 4.11447 28.5523C3.61437 28.0522 3.33342 27.3739 3.33342 26.6667V2.66667C3.33342 1.95942 3.61437 1.28115 4.11447 0.781049C4.61456 0.280952 5.29284 0 6.00008 0C6.70733 0 7.38561 0.280952 7.8857 0.781049C8.3858 1.28115 8.66675 1.95942 8.66675 2.66667V26.6667C8.66675 27.3739 8.3858 28.0522 7.8857 28.5523C7.38561 29.0524 6.70733 29.3333 6.00008 29.3333Z" fill="currentColor"/>
</svg>