<svg width="15" height="16" viewBox="0 0 15 16" fill="none" xmlns="http://www.w3.org/2000/svg">
<path d="M11.9969 4.0031H11.717C11.8995 3.62941 11.9952 3.21929 11.9969 2.80341C11.9993 2.24621 11.8349 1.70104 11.5249 1.23808C11.2148 0.775109 10.7733 0.415531 10.2571 0.205629C9.741 -0.00427274 9.17383 -0.0548925 8.62867 0.0602859C8.0835 0.175464 7.58528 0.451169 7.19814 0.851911C6.811 0.451169 6.31278 0.175464 5.76762 0.0602859C5.22245 -0.0548925 4.65529 -0.00427274 4.13913 0.205629C3.62298 0.415531 3.18146 0.775109 2.87141 1.23808C2.56136 1.70104 2.39696 2.24621 2.39938 2.80341C2.40109 3.21929 2.49678 3.62941 2.67931 4.0031H2.39938C1.76303 4.0031 1.15273 4.25589 0.702762 4.70586C0.252791 5.15583 0 5.76612 0 6.40248V8.00206C0 8.21418 0.0842637 8.41761 0.234254 8.5676C0.384244 8.71759 0.587675 8.80186 0.799793 8.80186H1.59959V13.6006C1.59959 14.237 1.85238 14.8473 2.30235 15.2972C2.75232 15.7472 3.36261 16 3.99897 16H10.3973C11.0337 16 11.644 15.7472 12.0939 15.2972C12.5439 14.8473 12.7967 14.237 12.7967 13.6006V8.80186H13.5965C13.8086 8.80186 14.012 8.71759 14.162 8.5676C14.312 8.41761 14.3963 8.21418 14.3963 8.00206V6.40248C14.3963 5.76612 14.1435 5.15583 13.6935 4.70586C13.2435 4.25589 12.6333 4.0031 11.9969 4.0031ZM6.39835 14.4004H3.99897C3.78685 14.4004 3.58342 14.3161 3.43343 14.1662C3.28344 14.0162 3.19917 13.8127 3.19917 13.6006V8.80186H6.39835V14.4004ZM6.39835 7.20227H1.59959V6.40248C1.59959 6.19036 1.68385 5.98693 1.83384 5.83694C1.98383 5.68695 2.18726 5.60268 2.39938 5.60268H6.39835V7.20227ZM6.39835 4.0031H5.19866C4.96138 4.0031 4.72943 3.93274 4.53215 3.80091C4.33486 3.66909 4.18109 3.48172 4.09029 3.26251C3.99949 3.04329 3.97573 2.80208 4.02202 2.56936C4.06831 2.33664 4.18257 2.12288 4.35035 1.9551C4.51813 1.78732 4.73189 1.67306 4.96461 1.62677C5.19733 1.58048 5.43854 1.60424 5.65776 1.69504C5.87697 1.78584 6.06434 1.93961 6.19616 2.1369C6.32799 2.33418 6.39835 2.56613 6.39835 2.80341V4.0031ZM7.99793 2.80341C7.99793 2.56613 8.0683 2.33418 8.20012 2.1369C8.33194 1.93961 8.51931 1.78584 8.73852 1.69504C8.95774 1.60424 9.19896 1.58048 9.43167 1.62677C9.66439 1.67306 9.87815 1.78732 10.0459 1.9551C10.2137 2.12288 10.328 2.33664 10.3743 2.56936C10.4206 2.80208 10.3968 3.04329 10.306 3.26251C10.2152 3.48172 10.0614 3.66909 9.86414 3.80091C9.66685 3.93274 9.4349 4.0031 9.19763 4.0031H7.99793V2.80341ZM11.1971 13.6006C11.1971 13.8127 11.1128 14.0162 10.9629 14.1662C10.8129 14.3161 10.6094 14.4004 10.3973 14.4004H7.99793V8.80186H11.1971V13.6006ZM12.7967 7.20227H7.99793V5.60268H11.9969C12.209 5.60268 12.4125 5.68695 12.5624 5.83694C12.7124 5.98693 12.7967 6.19036 12.7967 6.40248V7.20227Z" fill="currentColor"/>
</svg>
