<svg width="19" height="15" viewBox="0 0 19 15" fill="none" xmlns="http://www.w3.org/2000/svg">
<path d="M17.9084 5.49141L17.0751 5.03307L9.57506 0.866406H9.48339C9.4323 0.844805 9.37929 0.828065 9.32506 0.816406H9.16673H9.01673C8.95979 0.828072 8.90402 0.844806 8.85006 0.866406H8.75839L1.25839 5.03307C1.13015 5.10575 1.02347 5.21115 0.949256 5.33852C0.87504 5.46589 0.835937 5.61066 0.835938 5.75807C0.835937 5.90549 0.87504 6.05026 0.949256 6.17763C1.02347 6.30499 1.13015 6.41039 1.25839 6.48307L3.33339 7.63307V11.5831C3.33339 12.2461 3.59679 12.882 4.06563 13.3508C4.53447 13.8197 5.17035 14.0831 5.83339 14.0831H12.5001C13.1631 14.0831 13.799 13.8197 14.2678 13.3508C14.7367 12.882 15.0001 12.2461 15.0001 11.5831V7.63307L16.6667 6.69974V9.08307C16.6667 9.30409 16.7545 9.51605 16.9108 9.67233C17.0671 9.82861 17.279 9.91641 17.5001 9.91641C17.7211 9.91641 17.933 9.82861 18.0893 9.67233C18.2456 9.51605 18.3334 9.30409 18.3334 9.08307V6.21641C18.3331 6.06874 18.2937 5.9238 18.219 5.79641C18.1443 5.66902 18.0371 5.56376 17.9084 5.49141ZM13.3334 11.5831C13.3334 11.8041 13.2456 12.016 13.0893 12.1723C12.933 12.3286 12.7211 12.4164 12.5001 12.4164H5.83339C5.61238 12.4164 5.40042 12.3286 5.24414 12.1723C5.08786 12.016 5.00006 11.8041 5.00006 11.5831V8.55807L8.75839 10.6414L8.88339 10.6914H8.9584C9.02757 10.7001 9.09756 10.7001 9.16673 10.6914C9.2359 10.7001 9.30589 10.7001 9.37506 10.6914H9.45006C9.4943 10.6821 9.53659 10.6652 9.57506 10.6414L13.3334 8.55807V11.5831ZM9.16673 8.96641L3.38339 5.74974L9.16673 2.53307L14.9501 5.74974L9.16673 8.96641Z" fill="currentColor"/>
</svg>
