<svg width="18" height="16" viewBox="0 0 18 16" fill="none" xmlns="http://www.w3.org/2000/svg">
<path d="M10.6374 7.1668H9.8041V6.33347C9.8041 6.11246 9.71631 5.9005 9.56003 5.74422C9.40375 5.58793 9.19178 5.50014 8.97077 5.50014C8.74976 5.50014 8.5378 5.58793 8.38152 5.74422C8.22523 5.9005 8.13744 6.11246 8.13744 6.33347V7.1668H7.3041C7.08309 7.1668 6.87113 7.2546 6.71485 7.41088C6.55857 7.56716 6.47077 7.77912 6.47077 8.00014C6.47077 8.22115 6.55857 8.43311 6.71485 8.58939C6.87113 8.74567 7.08309 8.83347 7.3041 8.83347H8.13744V9.6668C8.13744 9.88782 8.22523 10.0998 8.38152 10.2561C8.5378 10.4123 8.74976 10.5001 8.97077 10.5001C9.19178 10.5001 9.40375 10.4123 9.56003 10.2561C9.71631 10.0998 9.8041 9.88782 9.8041 9.6668V8.83347H10.6374C10.8585 8.83347 11.0704 8.74567 11.2267 8.58939C11.383 8.43311 11.4708 8.22115 11.4708 8.00014C11.4708 7.77912 11.383 7.56716 11.2267 7.41088C11.0704 7.2546 10.8585 7.1668 10.6374 7.1668ZM15.7708 2.1668C14.8822 1.28739 13.7086 0.75453 12.4616 0.664373C11.2147 0.574215 9.97662 0.932699 8.97077 1.67514C7.91048 0.886502 6.59076 0.528897 5.27737 0.674336C3.96398 0.819774 2.75447 1.45745 1.89241 2.45896C1.03036 3.46046 0.579789 4.7514 0.631438 6.07182C0.683087 7.39223 1.23312 8.64403 2.17077 9.57514L7.17077 14.6168C7.63952 15.085 8.27494 15.3479 8.93744 15.3479C9.59994 15.3479 10.2354 15.085 10.7041 14.6168L15.7041 9.57514C16.1965 9.09401 16.5891 8.52031 16.8591 7.887C17.1291 7.25369 17.2713 6.57327 17.2775 5.88483C17.2836 5.19639 17.1537 4.51352 16.8952 3.87545C16.6366 3.23739 16.2545 2.65672 15.7708 2.1668ZM14.5958 8.38347L9.59577 13.3835C9.5183 13.4616 9.42613 13.5236 9.32458 13.5659C9.22304 13.6082 9.11411 13.63 9.0041 13.63C8.89409 13.63 8.78517 13.6082 8.68362 13.5659C8.58207 13.5236 8.48991 13.4616 8.41244 13.3835L3.41244 8.38347C2.7589 7.71543 2.39295 6.81803 2.39295 5.88347C2.39295 4.94892 2.7589 4.05152 3.41244 3.38347C4.0784 2.72596 4.97658 2.35728 5.91244 2.35728C6.84829 2.35728 7.74647 2.72596 8.41244 3.38347C8.48991 3.46158 8.58207 3.52357 8.68362 3.56588C8.78517 3.60819 8.89409 3.62997 9.0041 3.62997C9.11411 3.62997 9.22304 3.60819 9.32458 3.56588C9.42613 3.52357 9.5183 3.46158 9.59577 3.38347C10.2617 2.72596 11.1599 2.35728 12.0958 2.35728C13.0316 2.35728 13.9298 2.72596 14.5958 3.38347C15.2543 4.05226 15.6234 4.95321 15.6234 5.8918C15.6234 6.8304 15.2543 7.73135 14.5958 8.40014V8.38347Z" fill="currentColor"/>
</svg>
