<svg width="18" height="18" viewBox="0 0 18 18" fill="none" xmlns="http://www.w3.org/2000/svg">
<path d="M17.3333 3.23328C17.334 2.72513 17.1839 2.2282 16.9019 1.80547C16.6199 1.38274 16.2188 1.05322 15.7494 0.85866C15.2799 0.664105 14.7633 0.613271 14.265 0.712598C13.7666 0.811925 13.309 1.05694 12.95 1.41661L10.6083 3.75828L5.20001 1.95828C5.05602 1.91302 4.90243 1.90772 4.75566 1.94294C4.60889 1.97817 4.47444 2.0526 4.36668 2.15828L2.38334 4.12494C2.28937 4.22001 2.21964 4.33628 2.18005 4.46396C2.14045 4.59164 2.13215 4.72696 2.15585 4.85852C2.17955 4.99007 2.23454 5.114 2.3162 5.21984C2.39785 5.32567 2.50377 5.41031 2.62501 5.46661L6.94167 7.42494L4.77501 9.59161L3.35001 8.87494C3.19615 8.79167 3.01999 8.75894 2.84649 8.78137C2.673 8.80381 2.51096 8.88028 2.38334 8.99994L0.908343 10.5083C0.753134 10.6644 0.666016 10.8756 0.666016 11.0958C0.666016 11.3159 0.753134 11.5271 0.908343 11.6833L6.31667 17.0916C6.47281 17.2468 6.68402 17.3339 6.90417 17.3339C7.12433 17.3339 7.33554 17.2468 7.49167 17.0916L9.00001 15.6166C9.12508 15.4928 9.20776 15.3326 9.2362 15.159C9.26464 14.9853 9.23739 14.8072 9.15834 14.6499L8.44167 13.2249L10.6083 11.0583L12.5667 15.3749C12.623 15.4962 12.7076 15.6021 12.8134 15.6838C12.9193 15.7654 13.0432 15.8204 13.1748 15.8441C13.3063 15.8678 13.4416 15.8595 13.5693 15.8199C13.697 15.7803 13.8133 15.7106 13.9083 15.6166L15.875 13.6499C15.9807 13.5422 16.0551 13.4077 16.0903 13.261C16.1256 13.1142 16.1203 12.9606 16.075 12.8166L14.275 7.40828L16.5833 5.04994C16.8227 4.81208 17.0123 4.52894 17.141 4.21704C17.2698 3.90513 17.3352 3.57071 17.3333 3.23328ZM15.4 3.87494L12.7 6.57494C12.5943 6.68271 12.5199 6.81716 12.4847 6.96393C12.4494 7.1107 12.4548 7.26428 12.5 7.40828L14.3 12.8083L13.55 13.5583L11.5917 9.24994C11.5361 9.12758 11.4517 9.02048 11.3458 8.93777C11.2399 8.85506 11.1155 8.7992 10.9833 8.77494C10.8501 8.75062 10.7129 8.75915 10.5836 8.79981C10.4544 8.84047 10.337 8.91202 10.2417 9.00828L6.80834 12.4749C6.68508 12.5981 6.60351 12.7568 6.57511 12.9287C6.54671 13.1006 6.57291 13.277 6.65001 13.4333L7.33334 14.8333L6.86667 15.2999L2.67501 11.0999L3.16668 10.6666L4.59168 11.3833C4.74792 11.4604 4.9244 11.4866 5.0963 11.4582C5.2682 11.4298 5.42687 11.3482 5.55001 11.2249L9.00001 7.75828C9.09576 7.66327 9.16702 7.54644 9.20767 7.41783C9.24831 7.28921 9.25713 7.15265 9.23336 7.01987C9.20959 6.8871 9.15395 6.76207 9.07121 6.65555C8.98847 6.54902 8.88111 6.46416 8.75834 6.40828L4.41668 4.44994L5.16668 3.69994L10.5667 5.49994C10.7107 5.5452 10.8643 5.5505 11.011 5.51528C11.1578 5.48005 11.2922 5.40562 11.4 5.29994L14.1 2.59994C14.183 2.51503 14.2822 2.44756 14.3917 2.4015C14.5012 2.35543 14.6187 2.3317 14.7375 2.3317C14.8563 2.3317 14.9739 2.35543 15.0833 2.4015C15.1928 2.44756 15.292 2.51503 15.375 2.59994C15.4619 2.68048 15.5307 2.77863 15.5767 2.88784C15.6226 2.99706 15.6448 3.11482 15.6417 3.23328C15.6462 3.35094 15.6271 3.46832 15.5856 3.57851C15.5441 3.68871 15.481 3.78949 15.4 3.87494Z" fill="currentColor"/>
</svg>
