<svg width="20" height="20" viewBox="0 0 20 20" fill="none" xmlns="http://www.w3.org/2000/svg">
<path fill-rule="evenodd" clip-rule="evenodd" d="M10.6278 3.75049C10.6278 3.33627 10.292 3.00049 9.87775 3.00049C9.46354 3.00049 9.12775 3.33627 9.12775 3.75049V9.12775H3.75049C3.33627 9.12775 3.00049 9.46354 3.00049 9.87775C3.00049 10.292 3.33627 10.6278 3.75049 10.6278H9.12775V16.005C9.12775 16.4192 9.46354 16.755 9.87775 16.755C10.292 16.755 10.6278 16.4192 10.6278 16.005V10.6278H16.005C16.4192 10.6278 16.755 10.292 16.755 9.87775C16.755 9.46354 16.4192 9.12775 16.005 9.12775H10.6278V3.75049Z" fill="currentColor" />
</svg>
