<svg width="16" height="18" viewBox="0 0 16 18" fill="none" xmlns="http://www.w3.org/2000/svg">
<path d="M6.33333 5.66699H11.3333C11.5543 5.66699 11.7663 5.5792 11.9226 5.42291C12.0789 5.26663 12.1667 5.05467 12.1667 4.83366C12.1667 4.61265 12.0789 4.40068 11.9226 4.2444C11.7663 4.08812 11.5543 4.00033 11.3333 4.00033H6.33333C6.11232 4.00033 5.90036 4.08812 5.74408 4.2444C5.5878 4.40068 5.5 4.61265 5.5 4.83366C5.5 5.05467 5.5878 5.26663 5.74408 5.42291C5.90036 5.5792 6.11232 5.66699 6.33333 5.66699ZM4.66667 9.00033H11.3333C11.5543 9.00033 11.7663 8.91253 11.9226 8.75625C12.0789 8.59997 12.1667 8.38801 12.1667 8.16699C12.1667 7.94598 12.0789 7.73402 11.9226 7.57774C11.7663 7.42146 11.5543 7.33366 11.3333 7.33366H4.66667C4.44565 7.33366 4.23369 7.42146 4.07741 7.57774C3.92113 7.73402 3.83333 7.94598 3.83333 8.16699C3.83333 8.38801 3.92113 8.59997 4.07741 8.75625C4.23369 8.91253 4.44565 9.00033 4.66667 9.00033ZM4.66667 12.3337H11.3333C11.5543 12.3337 11.7663 12.2459 11.9226 12.0896C12.0789 11.9333 12.1667 11.7213 12.1667 11.5003C12.1667 11.2793 12.0789 11.0674 11.9226 10.9111C11.7663 10.7548 11.5543 10.667 11.3333 10.667H4.66667C4.44565 10.667 4.23369 10.7548 4.07741 10.9111C3.92113 11.0674 3.83333 11.2793 3.83333 11.5003C3.83333 11.7213 3.92113 11.9333 4.07741 12.0896C4.23369 12.2459 4.44565 12.3337 4.66667 12.3337ZM14.6667 0.666992H1.33333C1.11232 0.666992 0.900358 0.75479 0.744078 0.91107C0.587797 1.06735 0.5 1.27931 0.5 1.50033V16.5003C0.5 16.6551 0.543096 16.8068 0.624458 16.9384C0.70582 17.0701 0.822234 17.1765 0.960655 17.2457C1.09908 17.3149 1.25404 17.3442 1.40817 17.3303C1.56231 17.3164 1.70953 17.2598 1.83333 17.167L3.55833 15.8753L5.275 17.167C5.41925 17.2752 5.59469 17.3337 5.775 17.3337C5.95531 17.3337 6.13075 17.2752 6.275 17.167L8 15.8753L9.725 17.167C9.86925 17.2752 10.0447 17.3337 10.225 17.3337C10.4053 17.3337 10.5808 17.2752 10.725 17.167L12.4417 15.8753L14.1667 17.167C14.2911 17.2597 14.4389 17.3159 14.5935 17.3291C14.7481 17.3424 14.9033 17.3122 15.0417 17.242C15.1791 17.1727 15.2947 17.0668 15.3756 16.9359C15.4565 16.805 15.4995 16.6542 15.5 16.5003V1.50033C15.5 1.27931 15.4122 1.06735 15.2559 0.91107C15.0996 0.75479 14.8877 0.666992 14.6667 0.666992ZM13.8333 14.8337L12.9417 14.167C12.7974 14.0588 12.622 14.0003 12.4417 14.0003C12.2614 14.0003 12.0859 14.0588 11.9417 14.167L10.225 15.4587L8.5 14.167C8.35575 14.0588 8.18031 14.0003 8 14.0003C7.81969 14.0003 7.64425 14.0588 7.5 14.167L5.775 15.4587L4.05833 14.167C3.91409 14.0588 3.73864 14.0003 3.55833 14.0003C3.37802 14.0003 3.20258 14.0588 3.05833 14.167L2.16667 14.8337V2.33366H13.8333V14.8337Z" fill="currentColor"/>
</svg>
