<svg width="18" height="18" viewBox="0 0 18 18" fill="none" xmlns="http://www.w3.org/2000/svg">
<path d="M1.98727 13.4003C2.06905 13.6059 2.22913 13.7705 2.43229 13.858C2.63545 13.9455 2.86506 13.9488 3.07061 13.867C3.27615 13.7852 3.44079 13.6251 3.52831 13.422C3.61582 13.2188 3.61905 12.9892 3.53727 12.7837L2.60394 10.4337L8.13727 9.20866V13.167C8.13727 13.388 8.22507 13.6 8.38135 13.7563C8.53763 13.9125 8.74959 14.0003 8.97061 14.0003C9.19162 14.0003 9.40358 13.9125 9.55986 13.7563C9.71614 13.6 9.80394 13.388 9.80394 13.167V9.20866L15.3373 10.4337L14.4039 12.7837C14.3633 12.8854 14.3432 12.9942 14.3447 13.1037C14.3462 13.2133 14.3693 13.3215 14.4126 13.4221C14.456 13.5227 14.5187 13.6138 14.5973 13.6901C14.6759 13.7665 14.7688 13.8266 14.8706 13.867C14.9688 13.9058 15.0734 13.9256 15.1789 13.9253C15.3458 13.9255 15.5089 13.8755 15.6471 13.7819C15.7853 13.6883 15.8922 13.5554 15.9539 13.4003L17.2456 10.142C17.2899 10.0293 17.3092 9.90829 17.302 9.7874C17.2948 9.66651 17.2613 9.54864 17.2039 9.44199C17.1483 9.33574 17.0703 9.24276 16.9754 9.16941C16.8804 9.09606 16.7708 9.04407 16.6539 9.01699L13.9706 8.42533V4.83366C13.9706 4.61265 13.8828 4.40068 13.7265 4.2444C13.5703 4.08812 13.3583 4.00033 13.1373 4.00033H11.4706V1.50033C11.4706 1.27931 11.3828 1.06735 11.2265 0.91107C11.0702 0.75479 10.8583 0.666992 10.6373 0.666992H7.30394C7.08293 0.666992 6.87097 0.75479 6.71468 0.91107C6.5584 1.06735 6.47061 1.27931 6.47061 1.50033V4.00033H4.80394C4.58293 4.00033 4.37097 4.08812 4.21468 4.2444C4.0584 4.40068 3.97061 4.61265 3.97061 4.83366V8.42533L1.28727 9.00033C1.17041 9.02741 1.06077 9.0794 0.965848 9.15275C0.870925 9.2261 0.792958 9.31907 0.737273 9.42533C0.679881 9.53197 0.646423 9.64984 0.639227 9.77073C0.632031 9.89162 0.651271 10.0126 0.695607 10.1253L1.98727 13.4003ZM8.13727 2.33366H9.80394V4.00033H8.13727V2.33366ZM5.63727 5.66699H12.3039V8.05033L9.15394 7.33366H9.07061H8.97061H8.87061H8.78727L5.63727 8.05033V5.66699ZM16.2289 15.067C15.9365 15.1566 15.6566 15.2826 15.3956 15.442C15.1301 15.5972 14.8281 15.6791 14.5206 15.6791C14.2131 15.6791 13.9111 15.5972 13.6456 15.442C13.0683 15.1163 12.4167 14.9452 11.7539 14.9452C11.0911 14.9452 10.4396 15.1163 9.86227 15.442C9.59316 15.5954 9.28872 15.6761 8.97894 15.6761C8.66916 15.6761 8.36472 15.5954 8.09561 15.442C7.51781 15.1179 6.86643 14.9477 6.20394 14.9477C5.54145 14.9477 4.89007 15.1179 4.31227 15.442C4.0468 15.5972 3.74481 15.6791 3.43727 15.6791C3.12974 15.6791 2.82775 15.5972 2.56227 15.442C2.3013 15.2826 2.02133 15.1566 1.72894 15.067C1.61806 15.0276 1.50008 15.0121 1.38278 15.0215C1.26548 15.031 1.15152 15.0652 1.04839 15.1219C0.945255 15.1786 0.855299 15.2564 0.78444 15.3504C0.71358 15.4444 0.663424 15.5523 0.637274 15.667C0.575062 15.8781 0.598851 16.1052 0.703451 16.2987C0.80805 16.4923 0.98497 16.6367 1.19561 16.7003C1.36341 16.7458 1.5235 16.816 1.67061 16.9087C2.1762 17.2053 2.75108 17.3634 3.33727 17.367C3.94611 17.3671 4.54413 17.2061 5.07061 16.9003C5.39725 16.7201 5.76422 16.6256 6.13727 16.6256C6.51032 16.6256 6.87729 16.7201 7.20394 16.9003C7.72669 17.1992 8.31843 17.3565 8.92061 17.3565C9.52278 17.3565 10.1145 17.1992 10.6373 16.9003C10.9639 16.7201 11.3309 16.6256 11.7039 16.6256C12.077 16.6256 12.444 16.7201 12.7706 16.9003C13.2871 17.2086 13.8774 17.3714 14.4789 17.3714C15.0805 17.3714 15.6708 17.2086 16.1873 16.9003C16.3344 16.8077 16.4945 16.7375 16.6623 16.692C16.7732 16.6696 16.8783 16.6248 16.9714 16.5604C17.0644 16.496 17.1433 16.4133 17.2034 16.3174C17.2634 16.2215 17.3033 16.1144 17.3206 16.0025C17.3379 15.8907 17.3322 15.7766 17.3039 15.667C17.2775 15.5542 17.2278 15.4482 17.158 15.3557C17.0882 15.2632 17 15.1863 16.8988 15.1298C16.7977 15.0734 16.6858 15.0386 16.5705 15.0278C16.4552 15.017 16.3388 15.0303 16.2289 15.067Z" fill="currentColor"/>
</svg>
