<svg width="16" height="18" viewBox="0 0 16 18" fill="none" xmlns="http://www.w3.org/2000/svg">
<path d="M15.4999 8.36699C15.4958 8.34496 15.4958 8.32236 15.4999 8.30033V8.14199C15.4999 7.95033 15.4499 7.75866 15.4166 7.56699C15.4118 7.52268 15.4118 7.47798 15.4166 7.43366C15.3749 7.22533 15.3166 7.02533 15.2582 6.82533C14.9019 5.6751 14.2712 4.62879 13.4205 3.77661C12.5697 2.92442 11.5245 2.29193 10.3749 1.93366H10.3082C10.1249 1.87533 9.93322 1.82533 9.74155 1.78366H9.59155C9.44007 1.7533 9.28707 1.73104 9.13322 1.71699H8.93322V1.50033C8.93322 1.27931 8.84542 1.06735 8.68914 0.91107C8.53286 0.75479 8.3209 0.666992 8.09989 0.666992C7.87887 0.666992 7.66691 0.75479 7.51063 0.91107C7.35435 1.06735 7.26655 1.27931 7.26655 1.50033V1.55033C6.98609 1.58405 6.70784 1.63413 6.43322 1.70033C6.25817 1.733 6.08555 1.77755 5.91655 1.83366H5.80822C5.59989 1.90033 5.40822 1.97533 5.20822 2.05033C4.17922 2.45775 3.25405 3.08956 2.50009 3.89974C1.74614 4.70992 1.18238 5.67806 0.849886 6.73366C0.847007 6.75579 0.847007 6.7782 0.849886 6.80033C0.785472 6.99707 0.732604 7.19741 0.691553 7.40033V7.53366C0.647108 7.73366 0.613775 7.94199 0.591553 8.15866C0.591553 8.15866 0.591553 8.21699 0.591553 8.25033C0.591553 8.28366 0.591553 8.30033 0.591553 8.32533C0.591553 8.35033 0.591553 8.32533 0.591553 8.36699C0.591553 8.57533 0.591553 8.78366 0.591553 9.00033C0.591553 9.22134 0.67935 9.4333 0.835631 9.58958C0.991911 9.74586 1.20387 9.83366 1.42489 9.83366H7.25822V14.8337C7.25822 15.0547 7.17042 15.2666 7.01414 15.4229C6.85786 15.5792 6.6459 15.667 6.42489 15.667C6.20387 15.667 5.99191 15.5792 5.83563 15.4229C5.67935 15.2666 5.59155 15.0547 5.59155 14.8337C5.59155 14.6126 5.50376 14.4007 5.34748 14.2444C5.1912 14.0881 4.97923 14.0003 4.75822 14.0003C4.53721 14.0003 4.32524 14.0881 4.16896 14.2444C4.01268 14.4007 3.92489 14.6126 3.92489 14.8337C3.92489 15.4967 4.18828 16.1326 4.65712 16.6014C5.12596 17.0703 5.76184 17.3337 6.42489 17.3337C7.08793 17.3337 7.72381 17.0703 8.19265 16.6014C8.66149 16.1326 8.92489 15.4967 8.92489 14.8337V9.83366H14.7582C14.9792 9.83366 15.1912 9.74586 15.3475 9.58958C15.5038 9.4333 15.5916 9.22134 15.5916 9.00033C15.4999 8.78366 15.4999 8.57533 15.4999 8.36699ZM4.66655 8.16699H2.23322C2.23322 8.16699 2.23322 8.10866 2.23322 8.07533C2.23322 8.04199 2.23322 7.84199 2.29989 7.73366C2.36655 7.62533 2.29989 7.62533 2.29989 7.57533C2.29989 7.52533 2.36655 7.30866 2.40822 7.17533V7.10866C2.67492 6.35292 3.09449 5.66024 3.64076 5.07383C4.18702 4.48742 4.84826 4.01987 5.58322 3.70033C5.02489 5.12596 4.71485 6.63669 4.66655 8.16699ZM6.33322 8.16699C6.49155 4.90866 7.53322 3.16699 7.99989 3.16699C8.46655 3.16699 9.49155 4.90866 9.66655 8.16699H6.33322ZM11.3332 8.16699C11.2849 6.63669 10.9749 5.12596 10.4166 3.70033C11.1416 4.03007 11.7915 4.50481 12.3261 5.09529C12.8606 5.68577 13.2686 6.37948 13.5249 7.13366C13.5753 7.27826 13.6171 7.42574 13.6499 7.57533C13.6461 7.61691 13.6461 7.65874 13.6499 7.70033C13.6499 7.81699 13.6999 7.94199 13.7166 8.05866C13.7332 8.17533 13.7166 8.11699 13.7166 8.15033L11.3332 8.16699Z" fill="currentColor"/>
</svg>
