<svg xmlns="http://www.w3.org/2000/svg" version="1.1" xmlns:xlink="http://www.w3.org/1999/xlink" xmlns:svgjs="http://svgjs.dev/svgjs" width="1000" height="284" viewBox="0 0 1000 284"><g transform="matrix(1,0,0,1,0.8516040898075516,0.3393380393995926)"><svg viewBox="0 0 288 82" data-background-color="#fbeaab" preserveAspectRatio="xMidYMid meet" height="284" width="1000" xmlns="http://www.w3.org/2000/svg" xmlns:xlink="http://www.w3.org/1999/xlink"><g id="tight-bounds" transform="matrix(1,0,0,1,-0.2452619778645726,-0.09797788461537493)"><svg viewBox="0 0 288.49052395572915 82.19595576923076" height="82.19595576923076" width="288.49052395572915"><g><svg viewBox="0 0 288.49052395572915 82.19595576923076" height="82.19595576923076" width="288.49052395572915"><g><svg viewBox="0 0 288.49052395572915 82.19595576923076" height="82.19595576923076" width="288.49052395572915"><g id="textblocktransform"><svg viewBox="0 0 288.49052395572915 82.19595576923076" height="82.19595576923076" width="288.49052395572915" id="textblock"><g><svg viewBox="0 0 288.49052395572915 82.19595576923076" height="82.19595576923076" width="288.49052395572915"><g><svg><g></g><g></g></svg></g><g><svg><g><svg></svg></g><g></g></svg></g><g id="text-0"><svg viewBox="0 0 288.49052395572915 82.19595576923076" height="82.19595576923076" width="288.49052395572915"><g transform="matrix(1,0,0,1,0,0)"><svg width="197.4827462890625" viewBox="1.75 -33.65095488886 122.04370011453001 50.80095488886" height="82.19595576923076" data-palette-color="#dc834e"><path d="M15.25-17.25Q15.4-19.3 15.55-21.03 15.7-22.75 15.85-24.15L15.85-24.15 16.25-28.15Q12.35-27.55 7.95-25.85L7.95-25.85Q6.9-25.45 6-25.45L6-25.45Q4.65-25.45 3.53-26.2 2.4-26.95 1.75-28.4L1.75-28.4Q2.05-29.5 2.88-30.05 3.7-30.6 5.15-31.15L5.15-31.15Q12.1-33.7 21.05-33.65L21.05-33.65Q25.3-33.65 29.93-33.3 34.55-32.95 35.35-32.9L35.35-32.9 38.85-32.65Q39.05-32.65 39.53-32.65 40-32.65 40.3-32.43 40.6-32.2 40.6-31.7L40.6-31.7Q40.6-30.45 38.8-30.25L38.8-30.25Q34.3-29.75 32.4-29.55L32.4-29.55Q30.45-29.45 29.45-29.35L29.45-29.35Q25.55-29.1 23.6-28.95L23.6-28.95Q22.4-28.85 21.95-28.68 21.5-28.5 21.38-28.08 21.25-27.65 21.15-26.3L21.15-26.3Q20.9-23.15 20.1-15.45L20.1-15.45Q19.3-8.5 19.1-5.85L19.1-5.85Q19.05-4.4 18.45-2.35L18.45-2.35Q18.05-1.05 17.8-0.63 17.55-0.2 17.07-0.1 16.6 0 15.3-0.05L15.3-0.05Q14.35-0.05 13.83-0.48 13.3-0.9 13.3-1.65L13.3-1.65Q13.3-1.8 13.4-2.3L13.4-2.3Q14.5-6.65 15.25-17.25L15.25-17.25ZM41.65-21.2Q41.8-20.7 41.7-19.65L41.7-19.65 41.1-13.75Q41.35-13.95 41.85-15.18 42.35-16.4 42.8-17.18 43.25-17.95 43.5-18.2L43.5-18.2Q45.85-20.45 48.8-20.9 51.75-21.35 55.3-21.3L55.3-21.3Q55.65-21.3 56.07-21.03 56.5-20.75 56.5-20.58 56.5-20.4 56.2-20.03 55.9-19.65 55.65-19.55L55.65-19.55Q52.65-18.55 50.37-17.25 48.1-15.95 46.45-13.85L46.45-13.85Q42.55-8.9 41.95-3.65L41.95-3.65Q41.8-2.25 41.1-1.78 40.4-1.3 39.15-1.3L39.15-1.3Q37.75-1.3 36.65-2.5 35.55-3.7 35.55-5.15L35.55-5.15Q35.6-10.45 35.6-21.05L35.6-21.05Q35.6-22.5 36.25-23.08 36.9-23.65 38.6-23.65L38.6-23.65Q39.85-23.65 40.72-22.95 41.6-22.25 41.65-21.2L41.65-21.2ZM61.7-23.3Q61.6-23 60.97-22.65 60.35-22.3 59.95-22L59.95-22 58.55-22.75Q56.5-23.85 55.75-24.5L55.75-24.5Q55.35-24.8 55.35-25.25L55.35-25.25Q55.35-25.55 55.57-25.78 55.8-26 56.25-26L56.25-26Q58.2-26 61-25L61-25Q61.3-24.95 61.55-24.33 61.8-23.7 61.7-23.3L61.7-23.3ZM57.2-14Q57.35-14.65 57.4-14.95 57.45-15.25 57.45-15.6L57.45-15.6Q57.45-16.3 57.87-16.7 58.3-17.1 59.5-17.1L59.5-17.1Q60.9-17.1 61.97-16.23 63.05-15.35 63.3-13.95L63.3-13.95Q63.45-13.25 63.5-12.4 63.55-11.55 63.55-11.3L63.55-11.3 64.25-2.75Q64.4-1.4 63.87-0.68 63.35 0.05 61.9 0.05L61.9 0.05Q60.65 0.05 59.77-0.65 58.9-1.35 58.7-2.45L58.7-2.45 57.4-13.05 57.2-14ZM80.54-4Q79.04-2.4 77.29-2.4L77.29-2.4Q75.84-2.4 74.24-3.35L74.24-3.35 74.09 1.2Q73.84 6.2 73.84 9.9L73.84 9.9Q73.84 10.6 73.94 12.1L73.94 12.1Q74.04 13.6 74.04 14.3L74.04 14.3Q74.04 15.05 73.99 15.4L73.99 15.4Q73.94 15.85 73.39 16.38 72.84 16.9 72.29 17.05L72.29 17.05Q71.89 17.15 71.74 17.15L71.74 17.15Q70.59 17.15 69.52 16.15 68.44 15.15 68.49 14.05L68.49 14.05Q68.59 10.3 68.89 3.2L68.89 3.2 69.24-7.7Q69.34-10.7 68.89-12.75L68.89-12.75Q68.79-13.35 68.79-13.55L68.79-13.55Q68.79-14.35 69.27-14.8 69.74-15.25 70.54-15.35L70.54-15.35Q71.79-15.45 72.54-16.03 73.29-16.6 74.29-17.85L74.29-17.85Q76.09-20.1 78.24-20.1L78.24-20.1Q80.64-20.1 83.69-17.15L83.69-17.15Q85.09-15.8 85.09-13.5L85.09-13.5Q85.09-12.65 84.94-11.8L84.94-11.8Q84.59-9.7 83.47-7.9 82.34-6.1 80.54-4L80.54-4ZM75.89-12.35Q74.79-9.35 74.79-7L74.79-7Q74.79-6.45 74.84-6.2L74.84-6.2 75.44-5.9Q76.44-6.2 77.54-7.65 78.64-9.1 79.37-10.93 80.09-12.75 80.09-14.15L80.09-14.15Q80.09-14.75 79.84-15.35L79.84-15.35Q79.49-16 78.79-16L78.79-16Q77.89-16 77.49-15.35L77.49-15.35Q77.34-15.15 76.79-14.25 76.24-13.35 75.89-12.35L75.89-12.35ZM99.14-4Q97.64-2.4 95.89-2.4L95.89-2.4Q94.44-2.4 92.84-3.35L92.84-3.35 92.69 1.2Q92.44 6.2 92.44 9.9L92.44 9.9Q92.44 10.6 92.54 12.1L92.54 12.1Q92.64 13.6 92.64 14.3L92.64 14.3Q92.64 15.05 92.59 15.4L92.59 15.4Q92.54 15.85 91.99 16.38 91.44 16.9 90.89 17.05L90.89 17.05Q90.49 17.15 90.34 17.15L90.34 17.15Q89.19 17.15 88.12 16.15 87.04 15.15 87.09 14.05L87.09 14.05Q87.19 10.3 87.49 3.2L87.49 3.2 87.84-7.7Q87.94-10.7 87.49-12.75L87.49-12.75Q87.39-13.35 87.39-13.55L87.39-13.55Q87.39-14.35 87.87-14.8 88.34-15.25 89.14-15.35L89.14-15.35Q90.39-15.45 91.14-16.03 91.89-16.6 92.89-17.85L92.89-17.85Q94.69-20.1 96.84-20.1L96.84-20.1Q99.24-20.1 102.29-17.15L102.29-17.15Q103.69-15.8 103.69-13.5L103.69-13.5Q103.69-12.65 103.54-11.8L103.54-11.8Q103.19-9.7 102.06-7.9 100.94-6.1 99.14-4L99.14-4ZM94.49-12.35Q93.39-9.35 93.39-7L93.39-7Q93.39-6.45 93.44-6.2L93.44-6.2 94.04-5.9Q95.04-6.2 96.14-7.65 97.24-9.1 97.97-10.93 98.69-12.75 98.69-14.15L98.69-14.15Q98.69-14.75 98.44-15.35L98.44-15.35Q98.09-16 97.39-16L97.39-16Q96.49-16 96.09-15.35L96.09-15.35Q95.94-15.15 95.39-14.25 94.84-13.35 94.49-12.35L94.49-12.35ZM107.79 14.1Q108.14 14 108.69 13.83 109.24 13.65 109.64 13.6L109.64 13.6Q113.24 13.5 114.91 12.1 116.59 10.7 117.04 7.15L117.04 7.15Q117.49 3.6 117.94-3.5L117.94-3.5 118.14-6.7Q118.19-7.85 117.71-8.47 117.24-9.1 115.99-9.25L115.99-9.25Q113.29-9.55 111.31-11.35 109.34-13.15 108.59-15.9L108.59-15.9Q108.34-16.75 108.04-17.9L108.04-17.9Q107.44-20.1 107.19-21.2L107.19-21.2 107.19-21.3Q107.19-21.6 107.39-21.98 107.59-22.35 107.79-22.5L107.79-22.5Q108.59-23.05 109.64-23.05L109.64-23.05Q111.04-23.05 112.14-22.08 113.24-21.1 113.39-19.65L113.39-19.65Q113.64-17.4 114.24-14.75L114.24-14.75Q114.49-13.7 115.19-13.7L115.19-13.7Q115.74-13.7 116.14-14.25L116.14-14.25Q117.44-15.9 118.14-17.45L118.14-17.45Q118.99-19.35 120.64-19.35L120.64-19.35Q121.09-19.35 121.29-19.3L121.29-19.3Q123.89-18.8 123.79-16.1L123.79-16.1 123.64-11.45Q123.44-5.25 123.19-2.2L123.19-2.2 123.04-0.2Q122.74 3.9 122.46 6.18 122.19 8.45 121.59 10.75L121.59 10.75Q120.84 13.65 118.84 15.08 116.84 16.5 114.14 16.5L114.14 16.5Q111.99 16.5 109.84 15.65L109.84 15.65Q109.39 15.45 108.79 15.13 108.19 14.8 107.89 14.6L107.89 14.6 107.79 14.1Z" opacity="1" transform="matrix(1,0,0,1,0,0)" fill="#dc834e" class="wordmark-text-0" data-fill-palette-color="primary"></path></svg></g><g><svg xmlns="http://www.w3.org/2000/svg" xmlns:xlink="http://www.w3.org/1999/xlink" version="1.1" x="216.88871359675483" y="0" viewBox="10.1 5.2 78.4 90" enable-background="new 0 0 100 100" xml:space="preserve" height="82.19595576923076" width="71.60181035897436" class="icon-z$-0" data-fill-palette-color="accent" id="z$-0"><polygon fill-rule="evenodd" clip-rule="evenodd" fill="#dc834e" points="88.5,28.2 68.4,59.9 68.5,22.3 " data-fill-palette-color="accent"></polygon><polygon fill-rule="evenodd" clip-rule="evenodd" fill="#dc834e" points="49.8,5.2 67.2,38.5 34.7,19.6 " data-fill-palette-color="accent"></polygon><polygon fill-rule="evenodd" clip-rule="evenodd" fill="#dc834e" points="67.8,38.3 67.8,22.3 60.8,24.5 " data-fill-palette-color="accent"></polygon><polygon fill-rule="evenodd" clip-rule="evenodd" fill="#dc834e" points="88.2,73.2 50.6,71.7 83.2,52.9 " data-fill-palette-color="accent"></polygon><polygon fill-rule="evenodd" clip-rule="evenodd" fill="#dc834e" points="69.1,60.3 82.8,52.3 77.4,47.4 " data-fill-palette-color="accent"></polygon><polygon fill-rule="evenodd" clip-rule="evenodd" fill="#dc834e" points="48.7,95.2 31.5,61.9 63.9,80.9 " data-fill-palette-color="accent"></polygon><polygon fill-rule="evenodd" clip-rule="evenodd" fill="#dc834e" points="50.5,72.2 64.2,80.2 65.8,73.1 " data-fill-palette-color="accent"></polygon><polygon fill-rule="evenodd" clip-rule="evenodd" fill="#dc834e" points="10.1,72 30.5,40.4 30.1,78 " data-fill-palette-color="accent"></polygon><polygon fill-rule="evenodd" clip-rule="evenodd" fill="#dc834e" points="30.9,62.1 30.8,78 37.8,75.8 " data-fill-palette-color="accent"></polygon><polygon fill-rule="evenodd" clip-rule="evenodd" fill="#dc834e" points="11,27 48.5,28.9 15.8,47.3 " data-fill-palette-color="accent"></polygon><polygon fill-rule="evenodd" clip-rule="evenodd" fill="#dc834e" points="30,40.1 16.1,47.9 21.5,52.9 " data-fill-palette-color="accent"></polygon><polygon fill-rule="evenodd" clip-rule="evenodd" fill="#dc834e" points="48.2,28.3 34.5,20.2 32.9,27.4 " data-fill-palette-color="accent"></polygon></svg></g></svg></g></svg></g></svg></g></svg></g><g></g></svg></g><defs></defs></svg><rect width="288.49052395572915" height="82.19595576923076" fill="none" stroke="none" visibility="hidden"></rect></g></svg></g></svg>